<svg xmlns="http://www.w3.org/2000/svg" viewBox="0 0 256 256" width="36" height="36" preserveAspectRatio="xMidYMid meet">
  <!-- Outer Circle -->
  <circle cx="128" cy="128" r="120" fill="#0078FF" />

  <!-- Inner Shape -->
  <path
    d="M128 40c48.5 0 88 39.5 88 88s-39.5 88-88 88-88-39.5-88-88 39.5-88 88-88zm0 16c-39.8 0-72 32.2-72 72s32.2 72 72 72 72-32.2 72-72-32.2-72-72-72z"
    fill="#fff"
  />

  <!-- Decorative Triangles -->
  <polygon points="128,15 140,50 116,50" fill="#FF5E57" />
  <polygon points="128,241 140,206 116,206" fill="#FF5E57" />
  <polygon points="15,128 50,116 50,140" fill="#FFC23C" />
  <polygon points="241,128 206,116 206,140" fill="#FFC23C" />
</svg>
